<?xml version="1.0" standalone="no"?>
<!DOCTYPE svg PUBLIC "-//W3C//DTD SVG 20010904//EN"
 "http://www.w3.org/TR/2001/REC-SVG-20010904/DTD/svg10.dtd">
<svg version="1.0" xmlns="http://www.w3.org/2000/svg"
 width="204.000000pt" height="192.000000pt" viewBox="0 0 204.000000 192.000000"
 preserveAspectRatio="xMidYMid meet">

<g transform="translate(0.000000,192.000000) scale(0.100000,-0.100000)"
fill="#000000" stroke="none">
<path d="M252 1783 c-34 -16 -49 -36 -67 -87 -7 -20 -21 -32 -44 -40 -93 -30
-106 -169 -22 -219 33 -20 89 -22 125 -6 24 11 32 6 131 -86 58 -54 105 -101
105 -106 0 -5 -53 -9 -118 -9 -128 0 -142 -5 -142 -51 0 -51 19 -59 151 -59
l119 0 0 -32 c0 -76 111 -269 190 -330 l31 -24 -141 -128 c-136 -123 -141
-127 -162 -112 -57 40 -152 2 -177 -71 -13 -37 -13 -45 4 -82 19 -43 46 -66
89 -77 19 -4 26 -13 26 -30 0 -37 54 -91 99 -99 48 -8 103 14 127 50 20 30 23
110 6 127 -9 9 -1 23 35 60 26 26 50 48 54 48 4 0 9 -13 12 -29 36 -178 216
-279 422 -237 129 26 214 99 245 211 7 25 16 44 20 43 4 -2 26 -20 49 -41 35
-31 40 -41 31 -57 -5 -10 -10 -37 -10 -59 0 -33 7 -49 34 -79 32 -34 39 -37
89 -37 65 0 100 26 119 86 8 30 17 39 39 44 32 7 76 54 85 91 11 42 -5 91 -37
118 -43 36 -76 42 -128 23 l-44 -16 -129 121 c-70 66 -128 123 -128 126 0 3
26 31 58 62 88 88 137 180 166 313 l6 27 125 0 c113 0 125 2 135 19 14 27 13
47 -6 65 -12 13 -40 16 -135 16 -130 0 -145 8 -91 50 15 12 52 45 82 73 100
95 92 90 133 71 30 -15 43 -15 75 -6 56 17 84 52 90 112 4 48 3 52 -36 90 -22
22 -49 40 -60 40 -16 0 -23 8 -28 35 -9 51 -63 95 -115 95 -51 0 -94 -25 -114
-66 -18 -38 -19 -60 -4 -104 11 -29 9 -34 -17 -58 -16 -14 -47 -43 -70 -64
l-41 -39 -79 79 c-125 124 -272 181 -431 168 -155 -14 -262 -65 -364 -174
l-69 -74 -70 68 c-70 68 -71 69 -59 102 23 67 -4 131 -68 158 -41 18 -60 17
-101 -3z m119 -41 c24 -22 31 -36 31 -65 0 -21 -7 -48 -16 -62 -15 -23 -14
-25 70 -103 l86 -79 -21 -41 c-12 -23 -25 -58 -29 -78 l-7 -37 -109 101 -108
101 -39 -21 c-33 -17 -43 -18 -74 -8 -44 15 -67 48 -67 97 0 47 46 93 92 93
28 0 30 3 30 36 0 26 8 43 29 65 40 39 89 40 132 1z m1404 14 c40 -17 55 -42
55 -90 0 -26 4 -34 14 -30 25 10 84 -23 101 -56 21 -41 12 -82 -27 -115 -36
-30 -86 -33 -119 -6 l-24 19 -101 -94 c-56 -52 -104 -94 -107 -94 -2 0 -8 12
-12 28 -3 15 -16 47 -28 71 l-22 43 84 80 c78 74 82 80 67 97 -18 20 -21 83
-5 112 9 18 59 47 82 49 4 0 23 -6 42 -14z m-633 -87 c77 -17 163 -63 226
-122 50 -48 112 -129 112 -149 0 -4 -207 -8 -460 -8 l-460 0 21 42 c53 104
202 214 320 237 65 13 180 13 241 0z m666 -491 l3 -28 -780 0 -781 0 0 23 c0
13 3 27 7 30 3 4 353 6 777 5 l771 -3 3 -27z m-279 -100 c-6 -24 -28 -80 -50
-125 -98 -199 -305 -299 -546 -264 -198 28 -336 147 -398 342 -14 44 -25 82
-25 85 0 2 231 4 514 4 l514 0 -9 -42z m-709 -393 c21 -8 35 -20 34 -29 0 -9
-1 -29 -2 -46 -1 -20 -7 -30 -17 -30 -18 0 -115 47 -115 56 0 3 7 22 16 41 12
25 21 32 33 27 9 -4 32 -12 51 -19z m-125 -40 c-9 -27 -18 -81 -21 -119 l-6
-71 -65 -61 c-65 -60 -66 -61 -50 -85 60 -85 -49 -191 -137 -134 -29 19 -50
67 -43 95 4 17 0 20 -28 20 -48 0 -85 35 -92 86 -4 35 -1 46 24 74 23 25 36
32 67 32 22 0 49 -8 65 -20 l27 -19 134 127 c74 71 136 127 137 126 1 -1 -4
-24 -12 -51z m608 18 c14 -34 14 -39 0 -50 -18 -14 -113 -47 -117 -42 -2 2 -6
25 -8 50 l-5 46 46 16 c65 22 67 21 84 -20z m191 -119 l109 -103 25 19 c64 51
157 3 154 -79 -1 -58 -35 -92 -93 -93 -26 -1 -29 -4 -29 -34 0 -20 -10 -44
-26 -63 -21 -25 -33 -31 -66 -31 -50 0 -74 13 -94 51 -17 34 -12 80 12 100 13
11 6 22 -50 78 -61 63 -65 69 -72 126 -4 33 -15 88 -24 122 l-17 62 31 -26
c17 -14 80 -72 140 -129z m-511 106 c26 0 27 -2 27 -54 l0 -55 -37 5 c-110 15
-106 13 -99 46 3 17 6 40 6 51 0 17 5 19 38 13 20 -3 49 -6 65 -6z m172 -36
c3 -26 3 -50 -2 -54 -4 -5 -33 -10 -63 -12 l-55 -3 0 50 0 50 45 6 c25 3 50 7
56 7 7 1 15 -19 19 -44z m-375 -41 l57 -27 -5 -41 c-2 -22 -6 -42 -8 -44 -6
-6 -76 28 -101 48 -18 15 -21 25 -16 55 3 20 8 36 10 36 3 0 31 -12 63 -27z
m550 0 c0 -10 3 -27 6 -39 5 -18 -5 -26 -60 -55 -35 -18 -67 -31 -69 -29 -3 3
-7 24 -9 48 l-3 43 55 23 c68 29 80 31 80 9z m-381 -49 l61 -7 0 -48 c0 -48
-1 -49 -30 -49 -16 0 -52 5 -81 11 -50 11 -51 12 -45 41 3 17 6 39 6 50 0 13
5 18 14 15 8 -3 42 -9 75 -13z m223 -36 c3 -24 2 -46 -2 -51 -3 -4 -36 -10
-73 -14 l-67 -6 0 51 0 51 38 4 c102 10 99 11 104 -35z m-281 -83 c124 -29
261 -15 384 40 32 14 60 25 63 25 11 0 -9 -105 -28 -144 -47 -98 -127 -147
-254 -154 -208 -12 -334 82 -353 263 l-6 54 65 -34 c35 -19 93 -41 129 -50z"/>
<path d="M710 1499 c-42 -53 -48 -69 -27 -69 14 1 87 92 87 109 0 23 -21 9
-60 -40z"/>
<path d="M1300 1519 c0 -6 9 -23 20 -39 11 -15 24 -39 30 -54 13 -34 34 -24
25 13 -12 48 -75 116 -75 80z"/>
<path d="M798 1493 c-31 -36 -48 -83 -30 -83 10 0 62 77 62 91 0 15 -16 10
-32 -8z"/>
<path d="M1220 1481 c0 -18 22 -71 30 -71 18 0 20 21 5 50 -14 28 -35 41 -35
21z"/>
<path d="M862 1468 c-16 -16 -15 -38 2 -38 13 0 26 20 26 41 0 13 -14 11 -28
-3z"/>
<path d="M770 1083 c-43 -16 -90 -82 -90 -128 0 -41 36 -101 75 -125 85 -53
205 18 205 120 0 87 -108 163 -190 133z"/>
<path d="M1174 1076 c-35 -16 -72 -58 -80 -93 -25 -99 76 -194 175 -164 79 23
124 125 85 192 -39 66 -116 94 -180 65z"/>
<path d="M989 801 c-34 -28 -16 -56 36 -56 52 0 70 28 36 56 -13 10 -29 19
-36 19 -7 0 -23 -9 -36 -19z"/>
</g>
</svg>
